<svg id="visual" viewBox="0 0 540 960" width="540" height="960" xmlns="http://www.w3.org/2000/svg" xmlns:xlink="http://www.w3.org/1999/xlink" version="1.1"><rect x="0" y="0" width="540" height="960" fill="#000036"></rect><path d="M0 437L42 437L42 350L83 350L83 421L125 421L125 483L166 483L166 365L208 365L208 528L249 528L249 460L291 460L291 365L332 365L332 472L374 472L374 493L415 493L415 425L457 425L457 506L498 506L498 490L540 490L540 517L540 961L540 961L498 961L498 961L457 961L457 961L415 961L415 961L374 961L374 961L332 961L332 961L291 961L291 961L249 961L249 961L208 961L208 961L166 961L166 961L125 961L125 961L83 961L83 961L42 961L42 961L0 961Z" fill="#3eff00"></path><path d="M0 509L42 509L42 575L83 575L83 591L125 591L125 487L166 487L166 516L208 516L208 669L249 669L249 504L291 504L291 643L332 643L332 569L374 569L374 483L415 483L415 656L457 656L457 561L498 561L498 567L540 567L540 568L540 961L540 961L498 961L498 961L457 961L457 961L415 961L415 961L374 961L374 961L332 961L332 961L291 961L291 961L249 961L249 961L208 961L208 961L166 961L166 961L125 961L125 961L83 961L83 961L42 961L42 961L0 961Z" fill="#27da18"></path><path d="M0 661L42 661L42 739L83 739L83 743L125 743L125 636L166 636L166 673L208 673L208 716L249 716L249 767L291 767L291 610L332 610L332 718L374 718L374 736L415 736L415 774L457 774L457 756L498 756L498 729L540 729L540 642L540 961L540 961L498 961L498 961L457 961L457 961L415 961L415 961L374 961L374 961L332 961L332 961L291 961L291 961L249 961L249 961L208 961L208 961L166 961L166 961L125 961L125 961L83 961L83 961L42 961L42 961L0 961Z" fill="#11b61e"></path><path d="M0 910L42 910L42 800L83 800L83 812L125 812L125 777L166 777L166 822L208 822L208 879L249 879L249 808L291 808L291 788L332 788L332 750L374 750L374 888L415 888L415 751L457 751L457 768L498 768L498 900L540 900L540 764L540 961L540 961L498 961L498 961L457 961L457 961L415 961L415 961L374 961L374 961L332 961L332 961L291 961L291 961L249 961L249 961L208 961L208 961L166 961L166 961L125 961L125 961L83 961L83 961L42 961L42 961L0 961Z" fill="#00941f"></path></svg>
